HIERARCHY
ROOT hip
{
	OFFSET 0.000000 0.000000 0.000000 
	CHANNELS 6 Xposition Yposition Zposition Xrotation Zrotation Yrotation
	JOINT abdomen
	{
		OFFSET 0.000000 3.402643 0.000000 
		CHANNELS 3 Xrotation Zrotation Yrotation
		JOINT chest
		{
			OFFSET 0.000000 8.438565 -0.680529 
			CHANNELS 3 Xrotation Zrotation Yrotation
			JOINT neck
			{
				OFFSET 0.000000 10.207942 -0.272212 
				CHANNELS 3 Xrotation Zrotation Yrotation
				JOINT head
				{
					OFFSET 0.000000 3.130431 0.000000 
					CHANNELS 3 Xrotation Zrotation Yrotation
					End Site
					{
						OFFSET 0.000000 3.130435 0.000000 
					}
				}
			}
			JOINT lCollar
			{
				OFFSET 3.470700 6.669187 -0.816635 
				CHANNELS 3 Yrotation Zrotation Xrotation
				JOINT lShldr
				{
					OFFSET 3.198488 0.000000 0.000000 
					CHANNELS 3 Zrotation Yrotation Xrotation
					JOINT lForeArm
					{
						OFFSET 10.139888 0.000000 0.000000 
						CHANNELS 3 Yrotation Zrotation Xrotation
						JOINT lHand
						{
							OFFSET 8.370511 0.000000 0.000000 
							CHANNELS 3 Zrotation Yrotation Xrotation
							End Site
							{
								OFFSET 4.083176 0.000000 0.000000 
							}
						}
					}
				}
			}
			JOINT rCollar
			{
				OFFSET -3.470700 6.669187 -0.816635 
				CHANNELS 3 Yrotation Zrotation Xrotation
				JOINT rShldr
				{
					OFFSET -3.198488 0.000000 0.000000 
					CHANNELS 3 Zrotation Yrotation Xrotation
					JOINT rForeArm
					{
						OFFSET -10.139888 0.000000 0.000000 
						CHANNELS 3 Yrotation Zrotation Xrotation
						JOINT rHand
						{
							OFFSET -8.370511 0.000000 0.000000 
							CHANNELS 3 Zrotation Yrotation Xrotation
							End Site
							{
								OFFSET -4.083176 0.000000 0.000000 
							}
						}
					}
				}
			}
		}
	}
	JOINT lThigh
	{
		OFFSET 5.308129 -1.633274 1.361059 
		CHANNELS 3 Xrotation Zrotation Yrotation
		JOINT lShin
		{
			OFFSET -2.041588 -20.007561 0.000000 
			CHANNELS 3 Xrotation Zrotation Yrotation
			JOINT lFoot
			{
				OFFSET 0.000000 -19.190928 -1.224953 
				CHANNELS 3 Xrotation Yrotation Zrotation
				End Site
				{
					OFFSET 0.000000 -2.449906 4.627600 
				}
			}
		}
	}
	JOINT rThigh
	{
		OFFSET -5.308129 -1.633274 1.361059 
		CHANNELS 3 Xrotation Zrotation Yrotation
		JOINT rShin
		{
			OFFSET 2.041588 -20.007561 0.000000 
			CHANNELS 3 Xrotation Zrotation Yrotation
			JOINT rFoot
			{
				OFFSET 0.000000 -19.190928 -1.224953 
				CHANNELS 3 Xrotation Yrotation Zrotation
				End Site
				{
					OFFSET 0.000000 -2.449906 4.627600 
				}
			}
		}
	}
}
MOTION
Frames: 9
Frame Time: 0.033333
87.603775 46.514854 109.174080 6.188980 -4.252507 -151.408157 40.309586 -2.397182 7.564837 -20.839844 0.000000 0.000000 22.137924 -6.783327 22.096613 -2.520846 -1.255050 0.218350 -4.754609 -0.109183 -0.002653 -45.443844 -16.652719 -12.819927 -67.945137 -4.819418 8.224285 6.480705 -9.597238 8.850990 4.754609 0.109183 -0.002672 64.852715 13.288101 9.131066 109.368027 26.571846 11.315445 -15.291576 17.489273 27.957359 5.651647 11.494931 -16.307940 -3.190601 6.978263 -5.227612 15.478303 37.810459 -25.491100 15.848465 -19.570204 -8.469151 -5.516753 2.449504 1.133082 4.228224 -8.141544 19.132282 
87.884003 46.432098 108.980141 6.291463 -4.775884 -150.770676 40.296818 -3.430522 7.254667 -20.839844 0.000000 0.000000 22.796761 -6.161014 21.815430 -2.520846 -1.255050 0.218350 -4.754609 -0.109183 -0.002653 -46.035053 -17.806198 -12.649204 -65.959808 -4.442373 8.428434 7.149225 -10.331405 9.026170 4.754609 0.109183 -0.002672 64.961601 13.724104 9.005877 108.309196 26.277571 11.779608 -16.027138 17.489513 27.621428 6.249705 12.066878 -16.134607 -4.312740 6.088408 -5.712827 15.789719 37.521526 -24.947117 16.509048 -19.078012 -7.390832 -5.516555 1.199850 1.754122 2.252845 -9.398709 19.479517 
88.253082 46.354927 108.778595 6.462369 -5.211003 -150.081818 40.203869 -4.056335 7.113042 -20.839844 0.000000 0.000000 23.619259 -5.880638 21.642076 -2.520846 -1.255050 0.218350 -4.754609 -0.109183 -0.002653 -46.941380 -19.532892 -12.357078 -60.982990 -3.821790 8.702887 7.125479 -11.328211 9.173706 4.754609 0.109183 -0.002672 65.738434 14.464216 8.936419 104.933464 25.807999 12.921103 -15.902458 17.429680 26.775827 6.591483 13.210994 -15.729859 -5.201188 4.370836 -6.349416 15.800184 37.246113 -24.090565 14.760459 -18.432001 -6.075219 -0.578863 -0.058290 2.129889 -1.581992 -10.938981 18.787758 
88.669891 46.289948 108.594307 6.679987 -5.383345 -149.517151 40.143509 -4.281790 7.213818 -20.839844 0.000000 0.000000 24.295208 -5.833138 21.609192 -2.520846 -1.255050 0.218350 -4.754609 -0.109183 -0.002653 -48.109390 -20.927296 -12.113232 -56.171452 -3.045552 8.899239 6.234313 -11.617081 9.622931 4.754609 0.109183 -0.002672 66.561737 15.388760 9.029949 101.421288 25.371370 13.942124 -15.342613 17.049585 25.910582 6.005919 14.227100 -15.482147 -4.300522 3.122906 -7.049940 15.328432 37.086884 -24.218613 12.973087 -17.708265 -5.676243 3.879098 -0.606050 1.750151 -4.089051 -11.030296 17.316093 
89.100403 46.242233 108.431335 6.963651 -5.312312 -149.232712 40.242622 -4.275900 7.541109 -20.839844 0.000000 0.000000 24.407993 -5.926128 21.742256 -2.520846 -1.255050 0.218350 -4.754609 -0.109183 -0.002653 -49.150654 -20.705290 -11.922620 -55.326893 -2.758978 8.996559 5.495601 -11.288277 10.049563 4.754609 0.109183 -0.002672 66.703156 16.007635 9.211503 100.761131 25.339754 13.880454 -15.078558 16.510054 25.458143 5.244332 15.192600 -15.410808 -2.924374 2.449149 -7.766227 15.327720 37.127865 -25.313545 11.511113 -17.086990 -5.925544 7.329198 -0.645494 1.245562 -5.857983 -10.127565 16.820271 
89.536507 46.218369 108.281059 7.206155 -5.076980 -149.078629 40.292709 -4.020470 7.804554 -20.839844 0.000000 0.000000 24.302139 -6.165392 22.067274 -2.520846 -1.255050 0.218350 -4.754609 -0.109183 -0.002653 -49.693184 -18.776703 -11.689232 -58.717190 -3.307514 9.157092 5.907434 -10.965128 10.116572 4.754609 0.109183 -0.002672 66.074280 16.078844 9.559983 103.794769 25.955015 12.375055 -15.541153 16.444128 25.364552 4.315950 16.127489 -15.577223 -1.380929 1.984965 -8.498701 15.283848 37.543106 -25.815178 10.360782 -16.425720 -6.079891 9.650889 -0.450366 0.826048 -7.127830 -9.242332 16.203732 
89.962952 46.220901 108.124702 7.420942 -4.997070 -148.775101 40.349571 -3.684677 7.774628 -20.839844 0.000000 0.000000 24.457216 -6.308753 22.341135 -2.520846 -1.255050 0.218350 -4.754609 -0.109183 -0.002653 -50.025494 -16.515257 -11.386777 -63.510979 -4.219063 9.598084 6.969028 -10.577248 10.566725 4.754609 0.109183 -0.002672 65.195107 15.942290 10.007147 108.272095 26.717888 10.294646 -16.260765 16.788647 25.581787 4.072429 16.825340 -15.776155 -1.185826 2.085099 -9.161009 16.463108 37.681267 -27.264282 9.770001 -15.774460 -6.012701 11.155638 -0.333363 0.477037 -8.025313 -8.870641 15.625205 
90.358437 46.263046 107.967323 7.610554 -5.275649 -148.126373 40.490070 -3.572898 7.504692 -20.839844 0.000000 0.000000 25.122807 -5.857344 22.072786 -2.520846 -1.255050 0.218350 -4.754609 -0.109183 -0.002653 -50.422344 -15.057908 -11.008942 -66.957359 -4.981484 10.337644 7.781331 -10.092050 11.586850 4.754609 0.109183 -0.002672 64.586159 15.589004 10.187797 111.414795 27.015697 9.522349 -16.948866 17.253727 26.751760 3.926444 17.367777 -15.877436 -1.244895 1.821983 -9.894984 17.786102 37.036133 -29.297413 9.899674 -15.290396 -5.765698 11.864223 -0.304095 0.124133 -8.532561 -9.294068 15.134511 
90.696548 46.333603 107.838371 7.734708 -5.767717 -147.198975 40.683167 -3.709130 7.009330 -20.839844 0.000000 0.000000 25.827332 -4.977800 21.318260 -2.520846 -1.255050 0.218350 -4.754609 -0.109183 -0.002653 -50.737614 -14.565704 -10.667172 -67.885788 -5.434792 10.934750 7.975429 -9.788603 12.339601 4.754609 0.109183 -0.002672 64.445427 14.731868 9.921851 112.408943 26.866522 10.183818 -17.363974 17.967346 28.307629 3.877137 17.782246 -15.844470 -1.615118 1.237434 -10.590650 18.264610 36.123062 -30.008768 10.515759 -14.881660 -5.481293 11.879153 -0.411331 -0.352916 -8.660038 -10.103721 14.786454 
